<svg width="220" height="220" viewBox="0 0 220 220" fill="none" xmlns="http://www.w3.org/2000/svg">
  <path d="M110 12L172 34V100C172 143 146 179 110 198C74 179 48 143 48 100V34L110 12Z" fill="#123F86"/>
  <path d="M110 28L158 45V100C158 136 137 165 110 181C83 165 62 136 62 100V45L110 28Z" fill="white" opacity="0.96"/>
  <path d="M62 45L110 28V181C83 165 62 136 62 100V45Z" fill="#123F86"/>
  <path d="M110 28L158 45V100C158 136 137 165 110 181V28Z" fill="#E12A2D" opacity="0.96"/>
  <path d="M77 63H95V145H77V63Z" fill="white" opacity="0.98"/>
  <path d="M101 63H136C142.627 63 148 68.3726 148 75V133C148 139.627 142.627 145 136 145H101V63Z" fill="white" opacity="0.98"/>
  <path d="M112 76H136V132H112V76Z" fill="#E5ECF8"/>
  <path d="M83 76H89V94H83V76Z" fill="#D9E4F6"/>
  <path d="M83 101H89V132H83V101Z" fill="#D9E4F6"/>
  <path d="M121 86H127V122H121V86Z" fill="#C7D8F5"/>
  <path d="M130 86H136V122H130V86Z" fill="#C7D8F5"/>
  <path d="M74 105L110 182C83 166 62 136 62 100V88L74 105Z" fill="#E12A2D"/>
  <path d="M77.5 60L81.5 71.5H94L84 78.5L88 90L77.5 83L67 90L71 78.5L61 71.5H73.5L77.5 60Z" fill="white"/>
</svg>
